HIERARCHY
ROOT Model
{
	OFFSET 0 0 0
	CHANNELS 6 Xposition Yposition Zposition Zrotation Xrotation Yrotation
	JOINT Model1
	{
		OFFSET 0 -2.25479 2.99384
		CHANNELS 3 Zrotation Xrotation Yrotation
		JOINT Model2
		{
			OFFSET 12.111 0 0
			CHANNELS 3 Zrotation Xrotation Yrotation
			JOINT Model3
			{
				OFFSET 11.5502 0 0
				CHANNELS 3 Zrotation Xrotation Yrotation
				JOINT Model4
				{
					OFFSET 11.781 0 0
					CHANNELS 3 Zrotation Xrotation Yrotation
					JOINT Model5
					{
						OFFSET 20.0601 0 0
						CHANNELS 3 Zrotation Xrotation Yrotation
						JOINT Model6
						{
							OFFSET 11.1962 0 0
							CHANNELS 3 Zrotation Xrotation Yrotation
							End Site
							{
								OFFSET 0 0 0
							}
						}
					}
					JOINT Model7
					{
						OFFSET 10.8223 0.417534 3.51114
						CHANNELS 3 Zrotation Xrotation Yrotation
						JOINT Model8
						{
							OFFSET -6.07944 0 0
							CHANNELS 3 Zrotation Xrotation Yrotation
							JOINT Model9
							{
								OFFSET -0.277405 10.39 -0.051239
								CHANNELS 3 Zrotation Xrotation Yrotation
								JOINT Model10
								{
									OFFSET -3.43909 -0.282043 1.86679
									CHANNELS 3 Zrotation Xrotation Yrotation
									JOINT Model11
									{
										OFFSET 13.0269 0 0
										CHANNELS 3 Zrotation Xrotation Yrotation
										JOINT Model12
										{
											OFFSET 10.8866 0 0
											CHANNELS 3 Zrotation Xrotation Yrotation
											JOINT Model13
											{
												OFFSET 16.7317 0 0
												CHANNELS 3 Zrotation Xrotation Yrotation
												JOINT Model14
												{
													OFFSET 11.8292 0 0
													CHANNELS 3 Zrotation Xrotation Yrotation
													JOINT Model15
													{
														OFFSET 4.82751 -3.73566 -0.836517
														CHANNELS 3 Zrotation Xrotation Yrotation
														JOINT Model16
														{
															OFFSET 3.75311 -0.0582886 -0.0186462
															CHANNELS 3 Zrotation Xrotation Yrotation
															JOINT Model17
															{
																OFFSET 2.88689 0.0192337 0.014801
																CHANNELS 3 Zrotation Xrotation Yrotation
																End Site
																{
																	OFFSET 0 0 0
																}
															}
														}
													}
													JOINT Model18
													{
														OFFSET 9.72197 -3.06458 0.23877
														CHANNELS 3 Zrotation Xrotation Yrotation
														JOINT Model19
														{
															OFFSET 4.61131 0 0
															CHANNELS 3 Zrotation Xrotation Yrotation
															JOINT Model20
															{
																OFFSET 2.8969 -7.62939e-006 0
																CHANNELS 3 Zrotation Xrotation Yrotation
																End Site
																{
																	OFFSET 0 0 0
																}
															}
														}
													}
													JOINT Model21
													{
														OFFSET 9.54431 -0.745064 0.588928
														CHANNELS 3 Zrotation Xrotation Yrotation
														JOINT Model22
														{
															OFFSET 5.33978 0 0
															CHANNELS 3 Zrotation Xrotation Yrotation
															JOINT Model23
															{
																OFFSET 3.03619 7.62939e-006 0
																CHANNELS 3 Zrotation Xrotation Yrotation
																End Site
																{
																	OFFSET 0 0 0
																}
															}
														}
													}
													JOINT Model24
													{
														OFFSET 9.47758 1.51286 0.485107
														CHANNELS 3 Zrotation Xrotation Yrotation
														JOINT Model25
														{
															OFFSET 4.96136 7.62939e-006 0
															CHANNELS 3 Zrotation Xrotation Yrotation
															JOINT Model26
															{
																OFFSET 2.51965 0 0
																CHANNELS 3 Zrotation Xrotation Yrotation
																End Site
																{
																	OFFSET 0 0 0
																}
															}
														}
													}
													JOINT Model27
													{
														OFFSET 9.34247 3.34117 -0.239288
														CHANNELS 3 Zrotation Xrotation Yrotation
														JOINT Model28
														{
															OFFSET 3.28259 2.28882e-005 0
															CHANNELS 3 Zrotation Xrotation Yrotation
															JOINT Model29
															{
																OFFSET 2.1292 0 0
																CHANNELS 3 Zrotation Xrotation Yrotation
																End Site
																{
																	OFFSET 0 0 0
																}
															}
														}
													}
												}
											}
										}
									}
								}
							}
						}
					}
					JOINT Model30
					{
						OFFSET 10.8223 0.4179 -3.51108
						CHANNELS 3 Zrotation Xrotation Yrotation
						JOINT Model31
						{
							OFFSET 6.07944 0 0
							CHANNELS 3 Zrotation Xrotation Yrotation
							JOINT Model32
							{
								OFFSET 0.277405 -10.39 0.051239
								CHANNELS 3 Zrotation Xrotation Yrotation
								JOINT Model33
								{
									OFFSET 3.43909 0.282043 -1.86679
									CHANNELS 3 Zrotation Xrotation Yrotation
									JOINT Model34
									{
										OFFSET -13.0269 0 0
										CHANNELS 3 Zrotation Xrotation Yrotation
										JOINT Model35
										{
											OFFSET -10.8866 0 0
											CHANNELS 3 Zrotation Xrotation Yrotation
											JOINT Model36
											{
												OFFSET -16.7317 0 0
												CHANNELS 3 Zrotation Xrotation Yrotation
												JOINT Model37
												{
													OFFSET -11.8292 0 0
													CHANNELS 3 Zrotation Xrotation Yrotation
													JOINT Model38
													{
														OFFSET -4.82751 3.73566 0.836517
														CHANNELS 3 Zrotation Xrotation Yrotation
														JOINT Model39
														{
															OFFSET -3.75311 0.0582886 0.0186462
															CHANNELS 3 Zrotation Xrotation Yrotation
															JOINT Model40
															{
																OFFSET -2.88687 -0.0192337 -0.014801
																CHANNELS 3 Zrotation Xrotation Yrotation
																End Site
																{
																	OFFSET 0 0 0
																}
															}
														}
													}
													JOINT Model41
													{
														OFFSET -9.72198 3.06459 -0.23877
														CHANNELS 3 Zrotation Xrotation Yrotation
														JOINT Model42
														{
															OFFSET -4.6113 0 0
															CHANNELS 3 Zrotation Xrotation Yrotation
															JOINT Model43
															{
																OFFSET -2.89691 0 0
																CHANNELS 3 Zrotation Xrotation Yrotation
																End Site
																{
																	OFFSET 0 0 0
																}
															}
														}
													}
													JOINT Model44
													{
														OFFSET -9.54431 0.745064 -0.588928
														CHANNELS 3 Zrotation Xrotation Yrotation
														JOINT Model45
														{
															OFFSET -5.33978 0 0
															CHANNELS 3 Zrotation Xrotation Yrotation
															JOINT Model46
															{
																OFFSET -3.03619 -1.52588e-005 0
																CHANNELS 3 Zrotation Xrotation Yrotation
																End Site
																{
																	OFFSET 0 0 0
																}
															}
														}
													}
													JOINT Model47
													{
														OFFSET -9.4776 -1.51286 -0.485107
														CHANNELS 3 Zrotation Xrotation Yrotation
														JOINT Model48
														{
															OFFSET -4.96136 -1.52588e-005 0
															CHANNELS 3 Zrotation Xrotation Yrotation
															JOINT Model49
															{
																OFFSET -2.51965 0 0
																CHANNELS 3 Zrotation Xrotation Yrotation
																End Site
																{
																	OFFSET 0 0 0
																}
															}
														}
													}
													JOINT Model50
													{
														OFFSET -9.34247 -3.34118 0.239288
														CHANNELS 3 Zrotation Xrotation Yrotation
														JOINT Model51
														{
															OFFSET -3.28259 -2.28882e-005 0
															CHANNELS 3 Zrotation Xrotation Yrotation
															JOINT Model52
															{
																OFFSET -2.12921 0 0
																CHANNELS 3 Zrotation Xrotation Yrotation
																End Site
																{
																	OFFSET 0 0 0
																}
															}
														}
													}
												}
											}
										}
									}
								}
							}
						}
					}
				}
			}
		}
	}
	JOINT Model53
	{
		OFFSET 4.38025 -2.14632 -1.11517
		CHANNELS 3 Zrotation Xrotation Yrotation
		JOINT Model54
		{
			OFFSET 0 0 4.94998
			CHANNELS 3 Zrotation Xrotation Yrotation
			JOINT Model55
			{
				OFFSET 18.5642 0 0
				CHANNELS 3 Zrotation Xrotation Yrotation
				JOINT Model56
				{
					OFFSET 21.2884 0 0
					CHANNELS 3 Zrotation Xrotation Yrotation
					JOINT Model57
					{
						OFFSET 30.261 0 0
						CHANNELS 3 Zrotation Xrotation Yrotation
						JOINT Model58
						{
							OFFSET 11.7259 0 0
							CHANNELS 3 Zrotation Xrotation Yrotation
							JOINT Model59
							{
								OFFSET 10.682 0 0
								CHANNELS 3 Zrotation Xrotation Yrotation
								End Site
								{
									OFFSET 0 0 0
								}
							}
						}
					}
				}
			}
		}
	}
	JOINT Model60
	{
		OFFSET -4.38025 -2.14632 -1.11517
		CHANNELS 3 Zrotation Xrotation Yrotation
		JOINT Model61
		{
			OFFSET 0 0 -4.94998
			CHANNELS 3 Zrotation Xrotation Yrotation
			JOINT Model62
			{
				OFFSET -18.5642 0 0
				CHANNELS 3 Zrotation Xrotation Yrotation
				JOINT Model63
				{
					OFFSET -21.2884 0 0
					CHANNELS 3 Zrotation Xrotation Yrotation
					JOINT Model64
					{
						OFFSET -30.261 0 0
						CHANNELS 3 Zrotation Xrotation Yrotation
						JOINT Model65
						{
							OFFSET -11.7259 0 0
							CHANNELS 3 Zrotation Xrotation Yrotation
							JOINT Model66
							{
								OFFSET -10.682 0 0
								CHANNELS 3 Zrotation Xrotation Yrotation
								End Site
								{
									OFFSET 0 0 0
								}
							}
						}
					}
				}
			}
		}
	}
}
MOTION
Frames: 4
Frame Time: 0.033333
-89.796 171.455 166.264 6.5298 81.7905 174.577 -180 4.29621e-031 -90 0.227579 0.482141 0.547365 0.450573 0.965993 1.09287 0.450573 0.96643 1.09286 -0.195732 0.113563 -3.90684 7.27895 -0.776905 4.04956 120.092 75.5343 58.4939 -11.1454 6.21805 4.86677 -167.277 84.4999 48.8109 172.086 2.264 12.4975 5.81742e-007 22.568 3.35201e-005 -64.1671 -0.339568 0.548214 5.32306e-008 -1.17093 -1.36464e-007 -3.17079 0.451219 -16.1941 -72.0648 39.0385 39.3397 33.3638 2.10362 14.835 0.588947 0.308273 6.35287 -99.6409 81.413 100.35 -0.0181409 2.77661e-005 -0.117315 -0.124139 0.00241111 -0.799296 -79.8382 79.5773 80.5374 -0.000225785 -0.000220933 2.21938e-005 -0.000956238 0.000122881 -2.73217e-005 -66.7416 80.4058 67.2171 -0.000437142 1.59336e-005 -2.73206e-005 -0.000136617 -0.000109307 -5.46413e-005 -6.42159 81.2158 8.01779 -0.000218581 1.68776e-005 0.000212145 0.000901564 -0.000184843 -0.000218559 -59.9282 75.5373 58.5147 -18.1925 2.17205 4.68623 -167.277 84.4999 48.8109 -150.432 3.87685 20.4477 -2.5473e-006 15.3141 3.37276e-005 -75.1903 -1.04463 0.588937 8.05725e-007 -2.16461 -2.45145e-007 -2.09931 -0.143893 7.84125 -72.0648 39.0385 39.3397 33.3638 2.10361 14.835 0.588946 0.308273 6.35287 -99.6409 81.413 100.35 -0.0181409 3.00448e-005 -0.117315 -0.124139 0.00241109 -0.799296 -79.8382 79.5773 80.5374 -0.000260665 -0.000218599 2.35648e-005 -0.000956252 0.000122952 -2.73284e-005 -66.7416 80.4058 67.2171 -0.000437152 1.48477e-005 -2.7325e-005 -0.000136631 -0.000109329 -5.46473e-005 -6.42159 81.2158 8.01779 -0.000218588 1.95431e-005 0.000212299 0.000901554 -0.000191294 -0.000218563 0.000811311 0.56661 89.91 -30.9286 -0.905223 -7.93776 7.0473e-007 1.89637 -6.31795e-009 124.429 2.73909 -0.00677387 1.12293e-007 4.01044 1.35691e-007 -77.7736 -38.7337 15.9207 -35.4947 3.79805e-007 3.28726e-007 -180 -0.566579 -90.09 -39.7431 -7.40692 -0.802172 -3.94789e-006 -10.7858 -4.25767e-007 47.8891 4.20841 -0.671479 5.23927e-007 6.22445 3.95325e-007 -64.9151 12.4522 -8.01793 -35.4947 3.69001e-006 -3.35887e-007 
-90.905 173.587 146.323 36.1976 78.2714 144.127 -180 4.29621e-031 -90 -0.169638 1.68365 0.173727 -0.344607 3.36633 0.352671 -0.344607 3.36676 0.352674 -3.07163 0.69055 -1.10534 10.398 0.403647 0.0375733 120.092 75.5343 58.4939 -9.86145 1.39827 2.62264 -167.277 84.4999 48.8109 -173.833 6.63545 15.4556 -2.27792e-006 26.9302 3.47181e-005 -48.7396 -2.67705 0.458488 4.48766e-008 -4.66898 -1.36889e-007 -6.87448 0.572629 -9.51193 -72.0648 39.0385 39.3397 33.3638 2.10362 14.835 0.588947 0.308273 6.35287 -99.6409 81.413 100.35 -0.0181409 2.77661e-005 -0.117315 -0.124139 0.00241111 -0.799296 -79.8382 79.5773 80.5374 -0.000225785 -0.000220933 2.21938e-005 -0.000956238 0.000122881 -2.73217e-005 -66.7416 80.4058 67.2171 -0.000437142 1.59336e-005 -2.73206e-005 -0.000136617 -0.000109307 -5.46413e-005 -6.42159 81.2158 8.01779 -0.000218581 1.68776e-005 0.000212145 0.000901564 -0.000184843 -0.000218559 -59.9282 75.5373 58.5147 -12.5681 4.00319 4.27411 -167.277 84.4999 48.8109 -164.761 5.22917 15.0608 -8.10398e-006 23.9724 3.56009e-005 -103.487 -3.54404 0.593288 7.91375e-007 -5.50506 -2.46105e-007 -0.645375 0.0356984 -6.33193 -72.0648 39.0385 39.3397 33.3638 2.10361 14.835 0.588946 0.308273 6.35287 -99.6409 81.413 100.35 -0.0181409 3.00448e-005 -0.117315 -0.124139 0.00241109 -0.799296 -79.8382 79.5773 80.5374 -0.000260665 -0.000218599 2.35648e-005 -0.000956252 0.000122952 -2.73284e-005 -66.7416 80.4058 67.2171 -0.000437152 1.48477e-005 -2.7325e-005 -0.000136631 -0.000109329 -5.46473e-005 -6.42159 81.2158 8.01779 -0.000218588 1.95431e-005 0.000212299 0.000901554 -0.000191294 -0.000218563 0.000811311 0.56661 89.91 -53.8906 -2.44357 -10.6524 7.04233e-007 -2.61882 -6.3211e-009 122.603 -0.359286 -0.00699863 1.23294e-007 -0.639537 1.35367e-007 -37.8623 13.8523 -12.8636 -35.4947 -6.01521e-006 7.84608e-007 -180 -0.566579 -90.09 -24.6214 -1.53305 2.72027 -3.89399e-006 -3.52666 -4.19039e-007 42.9374 2.34424 -0.634362 5.43193e-007 3.4361 3.93702e-007 -72.1464 7.40348 -4.72914 -40.8669 0.621684 -0.374519 
-92.527 173.294 124.298 41.0357 76.5252 137.093 -180 4.29621e-031 -90 -0.308886 2.22332 -0.113179 -0.614069 4.44678 -0.214592 -0.61407 4.44721 -0.214588 -5.37326 0.733302 -2.7303 12.1576 0.00711125 0.469547 120.092 75.5343 58.4939 -12.5742 -2.76234 1.35921 -167.277 84.4999 48.8109 -159.91 7.74746 11.2776 -4.57535e-006 30.2085 3.58173e-005 -41.3607 -3.3968 0.40336 4.23907e-008 -5.70439 -1.37114e-007 -6.79038 0.318811 -5.36988 -72.0648 39.0385 39.3397 33.3638 2.10362 14.835 0.588947 0.308273 6.35287 -99.6409 81.413 100.35 -0.0181409 2.77661e-005 -0.117315 -0.124139 0.00241111 -0.799296 -79.8382 79.5773 80.5374 -0.000225785 -0.000220933 2.21938e-005 -0.000956238 0.000122881 -2.73217e-005 -66.7416 80.4058 67.2171 -0.000437142 1.59336e-005 -2.73206e-005 -0.000136617 -0.000109307 -5.46413e-005 -6.42159 81.2158 8.01779 -0.000218581 1.68776e-005 0.000212145 0.000901564 -0.000184843 -0.000218559 -59.9282 75.5373 58.5147 -4.23788 6.55359 3.32527 -167.277 84.4999 48.8109 174.257 2.37987 12.5505 -7.12969e-006 22.5238 3.52163e-005 -113.68 -1.18586 0.55783 8.07505e-007 -1.74899 -2.45084e-007 -5.65929 1.06309 -21.2617 -72.0648 39.0385 39.3397 33.3638 2.10361 14.835 0.588946 0.308273 6.35287 -99.6409 81.413 100.35 -0.0181409 3.00448e-005 -0.117315 -0.124139 0.00241109 -0.799296 -79.8382 79.5773 80.5374 -0.000260665 -0.000218599 2.35648e-005 -0.000956252 0.000122952 -2.73284e-005 -66.7416 80.4058 67.2171 -0.000437152 1.48477e-005 -2.7325e-005 -0.000136631 -0.000109329 -5.46473e-005 -6.42159 81.2158 8.01779 -0.000218588 1.95431e-005 0.000212299 0.000901554 -0.000191294 -0.000218563 0.000811311 0.56661 89.91 -73.9037 -0.716199 -9.34915 7.04235e-007 -2.59276 -6.32096e-009 116.578 -1.43171 -0.00745823 1.27114e-007 -2.25529 1.35463e-007 -43.8483 14.0252 -11.9911 -35.4947 -1.4311e-005 1.38369e-006 -180 -0.566579 -90.09 -8.98462 -1.10439 -2.15601 -3.86827e-006 -0.0083425 -4.18245e-007 36.6536 3.05827 -1.12017 5.35728e-007 4.51918 3.9422e-007 -64.3313 1.41829 -1.61762 -58.8634 4.63072 -0.134635 
-93.515 173.562 101.65 32.2184 78.106 143.799 -180 4.29621e-031 -90 -0.252648 2.28188 -0.557304 -0.483638 4.56566 -1.10584 -0.483639 4.5661 -1.10584 -7.44633 -1.10838 -3.04291 13.2308 -1.85738 1.66452 120.092 75.5343 58.4939 -14.1483 -2.91585 1.5406 -167.277 84.4999 48.8109 -149.338 6.40792 6.67587 -5.76661e-006 31.8279 3.64312e-005 -40.8014 -3.86029 0.399101 4.0727e-008 -6.39526 -1.3729e-007 -6.47337 0.210143 -3.71469 -72.0648 39.0385 39.3397 33.3638 2.10362 14.835 0.588947 0.308273 6.35287 -99.6409 81.413 100.35 -0.0181409 2.77661e-005 -0.117315 -0.124139 0.00241111 -0.799296 -79.8382 79.5773 80.5374 -0.000225785 -0.000220933 2.21938e-005 -0.000956238 0.000122881 -2.73217e-005 -66.7416 80.4058 67.2171 -0.000437142 1.59336e-005 -2.73206e-005 -0.000136617 -0.000109307 -5.46413e-005 -6.42159 81.2158 8.01779 -0.000218581 1.68776e-005 0.000212145 0.000901564 -0.000184843 -0.000218559 -59.9282 75.5373 58.5147 0.127865 5.46099 1.96781 -167.277 84.4999 48.8109 161.663 -0.878328 8.14425 -4.87465e-006 19.0538 3.44156e-005 -121.552 2.84537 0.519791 8.34203e-007 4.48587 -2.45722e-007 -1.22257 0.313558 -28.7685 -72.0648 39.0385 39.3397 33.3638 2.10361 14.835 0.588946 0.308273 6.35287 -99.6409 81.413 100.35 -0.0181409 3.00448e-005 -0.117315 -0.124139 0.00241109 -0.799296 -79.8382 79.5773 80.5374 -0.000260665 -0.000218599 2.35648e-005 -0.000956252 0.000122952 -2.73284e-005 -66.7416 80.4058 67.2171 -0.000437152 1.48477e-005 -2.7325e-005 -0.000136631 -0.000109329 -5.46473e-005 -6.42159 81.2158 8.01779 -0.000218588 1.95431e-005 0.000212299 0.000901554 -0.000191294 -0.000218563 0.000811311 0.56661 89.91 -79.2506 -0.970599 -4.42255 7.04255e-007 -2.41981 -6.32013e-009 96.8536 -1.91999 -0.00830171 1.2888e-007 -3.00142 1.35544e-007 -50.0254 12.4969 -9.82746 -35.4947 -2.16565e-005 1.91118e-006 -180 -0.566579 -90.09 6.55012 -2.21118 -5.56323 -3.85143e-006 2.29732 -4.18582e-007 26.0727 2.24722 -0.615122 5.43971e-007 3.32307 3.93656e-007 -38.3061 -0.768312 1.02299 -75.5596 7.34181 1.98067 
